<svg viewBox="0 0 144.666456693 125.658456693" width="144.666456693pt" height="125.658456693pt" xmlns="http://www.w3.org/2000/svg" xmlns:xlink="http://www.w3.org/1999/xlink" xmlns:h5="http://www.w3.org/1999/xhtml"><path fill="#ffffff" fill-rule="nonzero" d="M 0 0v 125.658456693h 144.666456693v -125.658456693Z "/><g transform="translate(14.173228346 14.173228346)"><path fill="#000000" fill-rule="nonzero" d="M 0 0m 0 5c 0 -2.761423749 2.238576251 -5 5 -5h 106.32c 2.761423749 0 5 2.238576251 5 5v 87.312c 0 2.761423749 -2.238576251 5 -5 5h -106.32c -2.761423749 0 -5 -2.238576251 -5 -5Z "/><g transform="translate(8 16.976)"/><g transform="translate(8 16.976)"/><g transform="translate(8 8)"><g transform="matrix(1 0 0 -1 0 8.976)"><use xlink:href="#g32152518642F2AC5BC45027CF77EB6FF" x="10.56" y="0" fill="#00ff00" fill-rule="nonzero"/><use xlink:href="#gCBB1D2557A57459D9C02B5F7104802E9" x="15.84" y="0" fill="#00ff00" fill-rule="nonzero"/><use xlink:href="#gCBB1D2557A57459D9C02B5F7104802E9" x="79.2" y="0" fill="#00ff00" fill-rule="nonzero"/><use xlink:href="#g32152518642F2AC5BC45027CF77EB6FF" x="84.48" y="0" fill="#00ff00" fill-rule="nonzero"/></g></g><g transform="translate(108.32 16.976)"/><g transform="translate(108.32 8)"/><g transform="translate(8 28.592)"/><g transform="translate(8 28.592)"/><g transform="translate(8 28.592)"/><g transform="translate(8 19.616)"><g transform="matrix(1 0 0 -1 0 8.976)"><use xlink:href="#gE7C7EE8E3A5B5147C6133B0F03DF6320" x="15.84" y="0" fill="#00ff00" fill-rule="nonzero"/><use xlink:href="#g32152518642F2AC5BC45027CF77EB6FF" x="21.12" y="0" fill="#00ff00" fill-rule="nonzero"/><use xlink:href="#gCBB1D2557A57459D9C02B5F7104802E9" x="26.4" y="0" fill="#00ff00" fill-rule="nonzero"/><use xlink:href="#g3FD66DFBDBEF59351D4AC30A46EBE8A5" x="31.68" y="0" fill="#00ff00" fill-rule="nonzero"/><use xlink:href="#gD7389F20B79CEB219257CFD97F88FFBB" x="36.96" y="0" fill="#00ff00" fill-rule="nonzero"/><use xlink:href="#gD7389F20B79CEB219257CFD97F88FFBB" x="42.24" y="0" fill="#00ff00" fill-rule="nonzero"/><use xlink:href="#gD7389F20B79CEB219257CFD97F88FFBB" x="47.52" y="0" fill="#00ff00" fill-rule="nonzero"/><use xlink:href="#gD7389F20B79CEB219257CFD97F88FFBB" x="52.8" y="0" fill="#00ff00" fill-rule="nonzero"/><use xlink:href="#gD7389F20B79CEB219257CFD97F88FFBB" x="58.08" y="0" fill="#00ff00" fill-rule="nonzero"/><use xlink:href="#g3FD66DFBDBEF59351D4AC30A46EBE8A5" x="63.36" y="0" fill="#00ff00" fill-rule="nonzero"/><use xlink:href="#gCBB1D2557A57459D9C02B5F7104802E9" x="68.64" y="0" fill="#00ff00" fill-rule="nonzero"/><use xlink:href="#g32152518642F2AC5BC45027CF77EB6FF" x="73.92" y="0" fill="#00ff00" fill-rule="nonzero"/><use xlink:href="#gE7C7EE8E3A5B5147C6133B0F03DF6320" x="79.2" y="0" fill="#00ff00" fill-rule="nonzero"/></g></g><g transform="translate(108.32 28.592)"/><g transform="translate(108.32 19.616)"/><g transform="translate(8 40.208)"/><g transform="translate(8 40.208)"/><g transform="translate(8 40.208)"/><g transform="translate(8 31.232)"><g transform="matrix(1 0 0 -1 0 8.976)"><use xlink:href="#gCBB1D2557A57459D9C02B5F7104802E9" x="10.56" y="0" fill="#00ff00" fill-rule="nonzero"/><use xlink:href="#gE7C7EE8E3A5B5147C6133B0F03DF6320" x="15.84" y="0" fill="#00ff00" fill-rule="nonzero"/><use xlink:href="#gE7C7EE8E3A5B5147C6133B0F03DF6320" x="79.2" y="0" fill="#00ff00" fill-rule="nonzero"/><use xlink:href="#gCBB1D2557A57459D9C02B5F7104802E9" x="84.48" y="0" fill="#00ff00" fill-rule="nonzero"/></g></g><g transform="translate(108.32 40.208)"/><g transform="translate(108.32 31.232)"/><g transform="translate(8 51.824)"/><g transform="translate(8 51.824)"/><g transform="translate(8 51.824)"/><g transform="translate(8 42.848)"><g transform="matrix(1 0 0 -1 0 8.976)"><use xlink:href="#g9D2891D8A1DDB4C6FB1031ACEA3D5DA3" x="5.28" y="0" fill="#00ff00" fill-rule="nonzero"/><use xlink:href="#gE045D6DCD5EA1EEC30AB5EB8AF0931C8" x="31.68" y="0" fill="#00ff00" fill-rule="nonzero"/><use xlink:href="#gE045D6DCD5EA1EEC30AB5EB8AF0931C8" x="63.36" y="0" fill="#00ff00" fill-rule="nonzero"/><use xlink:href="#gD37CA3356587AB4678BD772F473C04E9" x="89.76" y="0" fill="#00ff00" fill-rule="nonzero"/></g></g><g transform="translate(108.32 51.824)"/><g transform="translate(108.32 42.848)"/><g transform="translate(8 63.44)"/><g transform="translate(8 63.44)"/><g transform="translate(8 63.44)"/><g transform="translate(8 54.464)"><g transform="matrix(1 0 0 -1 0 8.976)"><use xlink:href="#gDC7654F9A9404D3525A3900DED6B06C6" x="0" y="0" fill="#00ff00" fill-rule="nonzero"/><use xlink:href="#gDC7654F9A9404D3525A3900DED6B06C6" x="95.04" y="0" fill="#00ff00" fill-rule="nonzero"/></g></g><g transform="translate(108.32 63.44)"/><g transform="translate(108.32 54.464)"/><g transform="translate(8 75.056)"/><g transform="translate(8 75.056)"/><g transform="translate(8 75.056)"/><g transform="translate(8 66.08)"><g transform="matrix(1 0 0 -1 0 8.976)"><use xlink:href="#gE7C7EE8E3A5B5147C6133B0F03DF6320" x="0" y="0" fill="#00ff00" fill-rule="nonzero"/><use xlink:href="#gD7389F20B79CEB219257CFD97F88FFBB" x="5.28" y="0" fill="#00ff00" fill-rule="nonzero"/><use xlink:href="#gD7389F20B79CEB219257CFD97F88FFBB" x="10.56" y="0" fill="#00ff00" fill-rule="nonzero"/><use xlink:href="#gD7389F20B79CEB219257CFD97F88FFBB" x="15.84" y="0" fill="#00ff00" fill-rule="nonzero"/><use xlink:href="#gD7389F20B79CEB219257CFD97F88FFBB" x="21.12" y="0" fill="#00ff00" fill-rule="nonzero"/><use xlink:href="#gD7389F20B79CEB219257CFD97F88FFBB" x="26.4" y="0" fill="#00ff00" fill-rule="nonzero"/><use xlink:href="#gD7389F20B79CEB219257CFD97F88FFBB" x="31.68" y="0" fill="#00ff00" fill-rule="nonzero"/><use xlink:href="#gD7389F20B79CEB219257CFD97F88FFBB" x="36.96" y="0" fill="#00ff00" fill-rule="nonzero"/><use xlink:href="#gD7389F20B79CEB219257CFD97F88FFBB" x="42.24" y="0" fill="#00ff00" fill-rule="nonzero"/><use xlink:href="#gD7389F20B79CEB219257CFD97F88FFBB" x="47.52" y="0" fill="#00ff00" fill-rule="nonzero"/><use xlink:href="#gD7389F20B79CEB219257CFD97F88FFBB" x="52.8" y="0" fill="#00ff00" fill-rule="nonzero"/><use xlink:href="#gD7389F20B79CEB219257CFD97F88FFBB" x="58.08" y="0" fill="#00ff00" fill-rule="nonzero"/><use xlink:href="#gD7389F20B79CEB219257CFD97F88FFBB" x="63.36" y="0" fill="#00ff00" fill-rule="nonzero"/><use xlink:href="#gD7389F20B79CEB219257CFD97F88FFBB" x="68.64" y="0" fill="#00ff00" fill-rule="nonzero"/><use xlink:href="#gD7389F20B79CEB219257CFD97F88FFBB" x="73.92" y="0" fill="#00ff00" fill-rule="nonzero"/><use xlink:href="#gD7389F20B79CEB219257CFD97F88FFBB" x="79.2" y="0" fill="#00ff00" fill-rule="nonzero"/><use xlink:href="#gD7389F20B79CEB219257CFD97F88FFBB" x="84.48" y="0" fill="#00ff00" fill-rule="nonzero"/><use xlink:href="#gD7389F20B79CEB219257CFD97F88FFBB" x="89.76" y="0" fill="#00ff00" fill-rule="nonzero"/><use xlink:href="#gE7C7EE8E3A5B5147C6133B0F03DF6320" x="95.04" y="0" fill="#00ff00" fill-rule="nonzero"/></g></g><g transform="translate(108.32 75.056)"/><g transform="translate(108.32 66.08)"/><g transform="translate(8 77.696)"/><g transform="translate(8 89.312)"/></g><defs><symbol id="g32152518642F2AC5BC45027CF77EB6FF" overflow="visible"><path d="M 0 0m 2.552 3.4496q -0.3256 0 -0.5324 0.2112q -0.2068 0.2112 -0.2068 0.528q 0 0.3168 0.2112 0.528q 0.2112 0.2112 0.528 0.2112h 0.176q 0.3168 0 0.528 -0.2112q 0.2112 -0.2112 0.2112 -0.528q 0 -0.3168 -0.2068 -0.528q -0.2068 -0.2112 -0.5324 -0.2112h -0.176Z m -0.924 -4.8576l 0.4664 2.6928h 1.2584l -0.6688 -2.6928h -1.056Z "/></symbol><symbol id="gCBB1D2557A57459D9C02B5F7104802E9" overflow="visible"><path d="M 0 0m 1.672 -1.408l 0.4664 2.6928h 1.2584l -0.6688 -2.6928h -1.056Z "/></symbol><symbol id="gE7C7EE8E3A5B5147C6133B0F03DF6320" overflow="visible"><path d="M 0 0m 2.1296 3.784l -0.0792 2.64h 1.1792l -0.0704 -2.64h -1.0296Z "/></symbol><symbol id="g3FD66DFBDBEF59351D4AC30A46EBE8A5" overflow="visible"><path d="M 0 0m 2.64 -0.088q -0.3696 0 -0.594 0.2244q -0.2244 0.2244 -0.2244 0.5852q 0 0.3608 0.2244 0.5896q 0.2244 0.2288 0.594 0.2288q 0.3696 0 0.594 -0.2288q 0.2244 -0.2288 0.2244 -0.5896q 0 -0.3608 -0.2244 -0.5852q -0.2244 -0.2244 -0.594 -0.2244Z "/></symbol><symbol id="gD7389F20B79CEB219257CFD97F88FFBB" overflow="visible"><path d="M 0 0m 1.232 2.3936v 1.0208h 2.816v -1.0208h -2.816Z "/></symbol><symbol id="g9D2891D8A1DDB4C6FB1031ACEA3D5DA3" overflow="visible"><path d="M 0 0m 0.528 -0.968l 3.08 8.272h 1.144l -3.08 -8.272h -1.144Z "/></symbol><symbol id="gE045D6DCD5EA1EEC30AB5EB8AF0931C8" overflow="visible"><path d="M 0 0m 2.64 -0.088q -0.924 0 -1.4652 0.528q -0.5412 0.528 -0.5412 1.4608v 2.6224q 0 0.9328 0.5412 1.4608q 0.5412 0.528 1.4652 0.528q 0.924 0 1.4652 -0.528q 0.5412 -0.528 0.5412 -1.452v -2.6312q 0 -0.9328 -0.5412 -1.4608q -0.5412 -0.528 -1.4652 -0.528Z m 0 0.968q 0.4488 0 0.6776 0.242q 0.2288 0.242 0.2288 0.6908v 2.7984q 0 0.4488 -0.2288 0.6908q -0.2288 0.242 -0.6776 0.242q -0.4488 0 -0.6776 -0.242q -0.2288 -0.242 -0.2288 -0.6908v -2.7984q 0 -0.4488 0.2288 -0.6908q 0.2288 -0.242 0.6776 -0.242Z "/></symbol><symbol id="gD37CA3356587AB4678BD772F473C04E9" overflow="visible"><path d="M 0 0m 3.5992 -0.968l -3.0712 8.272h 1.144l 3.0712 -8.272h -1.144Z "/></symbol><symbol id="gDC7654F9A9404D3525A3900DED6B06C6" overflow="visible"><path d="M 0 0m 2.0856 -0.968v 8.272h 1.1088v -8.272h -1.1088Z "/></symbol></defs></svg>