<svg viewBox="0 0 123.546456693 137.274456693" width="123.546456693pt" height="137.274456693pt" xmlns="http://www.w3.org/2000/svg" xmlns:xlink="http://www.w3.org/1999/xlink" xmlns:h5="http://www.w3.org/1999/xhtml"><path fill="#ffffff" fill-rule="nonzero" d="M 0 0v 137.274456693h 123.546456693v -137.274456693Z "/><g transform="translate(14.173228346 14.173228346)"><path fill="#000000" fill-rule="nonzero" d="M 0 0m 0 5c 0 -2.761423749 2.238576251 -5 5 -5h 85.2c 2.761423749 0 5 2.238576251 5 5v 98.928c 0 2.761423749 -2.238576251 5 -5 5h -85.2c -2.761423749 0 -5 -2.238576251 -5 -5Z "/><g transform="translate(8 16.976)"/><g transform="translate(8 16.976)"/><g transform="translate(8 8)"><g transform="matrix(1 0 0 -1 0 8.976)"><use xlink:href="#g42CDF5C88C3DA0512EF429B297D7562D" x="42.24" y="0" fill="#00ffff" fill-rule="nonzero"/></g></g><g transform="translate(87.2 16.976)"/><g transform="translate(87.2 8)"/><g transform="translate(8 28.592)"/><g transform="translate(8 28.592)"/><g transform="translate(8 28.592)"/><g transform="translate(8 19.616)"><g transform="matrix(1 0 0 -1 0 8.976)"><use xlink:href="#g9D2891D8A1DDB4C6FB1031ACEA3D5DA3" x="31.68" y="0" fill="#00ffff" fill-rule="nonzero"/><use xlink:href="#gD37CA3356587AB4678BD772F473C04E9" x="47.52" y="0" fill="#00ffff" fill-rule="nonzero"/></g></g><g transform="translate(87.2 28.592)"/><g transform="translate(87.2 19.616)"/><g transform="translate(8 40.208)"/><g transform="translate(8 40.208)"/><g transform="translate(8 40.208)"/><g transform="translate(8 31.232)"><g transform="matrix(1 0 0 -1 0 8.976)"><use xlink:href="#g42CDF5C88C3DA0512EF429B297D7562D" x="31.68" y="0" fill="#00ffff" fill-rule="nonzero"/><use xlink:href="#gD37CA3356587AB4678BD772F473C04E9" x="52.8" y="0" fill="#00ffff" fill-rule="nonzero"/></g></g><g transform="translate(87.2 40.208)"/><g transform="translate(87.2 31.232)"/><g transform="translate(8 51.824)"/><g transform="translate(8 51.824)"/><g transform="translate(8 51.824)"/><g transform="translate(8 42.848)"><g transform="matrix(1 0 0 -1 0 8.976)"><use xlink:href="#g9D2891D8A1DDB4C6FB1031ACEA3D5DA3" x="21.12" y="0" fill="#0000ff" fill-rule="nonzero"/><use xlink:href="#gD37CA3356587AB4678BD772F473C04E9" x="58.08" y="0" fill="#0000ff" fill-rule="nonzero"/></g></g><g transform="translate(87.2 51.824)"/><g transform="translate(87.2 42.848)"/><g transform="translate(8 63.44)"/><g transform="translate(8 63.44)"/><g transform="translate(8 63.44)"/><g transform="translate(8 54.464)"><g transform="matrix(1 0 0 -1 0 8.976)"><use xlink:href="#g9D2891D8A1DDB4C6FB1031ACEA3D5DA3" x="15.84" y="0" fill="#0000ff" fill-rule="nonzero"/><use xlink:href="#gCBB1D2557A57459D9C02B5F7104802E9" x="36.96" y="0" fill="#0000ff" fill-rule="nonzero"/><use xlink:href="#gCBB1D2557A57459D9C02B5F7104802E9" x="42.24" y="0" fill="#0000ff" fill-rule="nonzero"/><use xlink:href="#gD37CA3356587AB4678BD772F473C04E9" x="63.36" y="0" fill="#0000ff" fill-rule="nonzero"/></g></g><g transform="translate(87.2 63.44)"/><g transform="translate(87.2 54.464)"/><g transform="translate(8 75.056)"/><g transform="translate(8 75.056)"/><g transform="translate(8 75.056)"/><g transform="translate(8 66.08)"><g transform="matrix(1 0 0 -1 0 8.976)"><use xlink:href="#g9D2891D8A1DDB4C6FB1031ACEA3D5DA3" x="10.56" y="0" fill="#0000ff" fill-rule="nonzero"/><use xlink:href="#gDC7654F9A9404D3525A3900DED6B06C6" x="31.68" y="0" fill="#0000ff" fill-rule="nonzero"/><use xlink:href="#gDC7654F9A9404D3525A3900DED6B06C6" x="47.52" y="0" fill="#0000ff" fill-rule="nonzero"/><use xlink:href="#gD7389F20B79CEB219257CFD97F88FFBB" x="63.36" y="0" fill="#0000ff" fill-rule="nonzero"/><use xlink:href="#gD37CA3356587AB4678BD772F473C04E9" x="68.64" y="0" fill="#0000ff" fill-rule="nonzero"/></g></g><g transform="translate(87.2 75.056)"/><g transform="translate(87.2 66.08)"/><g transform="translate(8 86.672)"/><g transform="translate(8 86.672)"/><g transform="translate(8 86.672)"/><g transform="translate(8 77.696)"><g transform="matrix(1 0 0 -1 0 8.976)"><use xlink:href="#g9D2891D8A1DDB4C6FB1031ACEA3D5DA3" x="5.28" y="0" fill="#0000ff" fill-rule="nonzero"/><use xlink:href="#gF5EB9C4AF8F52FC3BE778C06282A1C81" x="10.56" y="0" fill="#0000ff" fill-rule="nonzero"/><use xlink:href="#gD7389F20B79CEB219257CFD97F88FFBB" x="15.84" y="0" fill="#0000ff" fill-rule="nonzero"/><use xlink:href="#gE7C7EE8E3A5B5147C6133B0F03DF6320" x="21.12" y="0" fill="#0000ff" fill-rule="nonzero"/><use xlink:href="#gE7C7EE8E3A5B5147C6133B0F03DF6320" x="26.4" y="0" fill="#0000ff" fill-rule="nonzero"/><use xlink:href="#gE7C7EE8E3A5B5147C6133B0F03DF6320" x="52.8" y="0" fill="#0000ff" fill-rule="nonzero"/><use xlink:href="#gE7C7EE8E3A5B5147C6133B0F03DF6320" x="58.08" y="0" fill="#0000ff" fill-rule="nonzero"/><use xlink:href="#gD7389F20B79CEB219257CFD97F88FFBB" x="63.36" y="0" fill="#0000ff" fill-rule="nonzero"/><use xlink:href="#gF5EB9C4AF8F52FC3BE778C06282A1C81" x="68.64" y="0" fill="#0000ff" fill-rule="nonzero"/><use xlink:href="#gD37CA3356587AB4678BD772F473C04E9" x="73.92" y="0" fill="#0000ff" fill-rule="nonzero"/></g></g><g transform="translate(87.2 86.672)"/><g transform="translate(87.2 77.696)"/><g transform="translate(8 89.312)"/><g transform="translate(8 100.928)"/></g><defs><symbol id="g42CDF5C88C3DA0512EF429B297D7562D" overflow="visible"><path d="M 0 0m -3.7048 -0.968l 3.0624 8.272h 1.2848l 3.0624 -8.272h -1.144l -2.3232 6.3096l -0.2376 0.7744l -0.2376 -0.7744l -2.3056 -6.3096h -1.1616Z "/></symbol><symbol id="g9D2891D8A1DDB4C6FB1031ACEA3D5DA3" overflow="visible"><path d="M 0 0m 0.528 -0.968l 3.08 8.272h 1.144l -3.08 -8.272h -1.144Z "/></symbol><symbol id="gD37CA3356587AB4678BD772F473C04E9" overflow="visible"><path d="M 0 0m 3.5992 -0.968l -3.0712 8.272h 1.144l 3.0712 -8.272h -1.144Z "/></symbol><symbol id="gCBB1D2557A57459D9C02B5F7104802E9" overflow="visible"><path d="M 0 0m 1.672 -1.408l 0.4664 2.6928h 1.2584l -0.6688 -2.6928h -1.056Z "/></symbol><symbol id="gDC7654F9A9404D3525A3900DED6B06C6" overflow="visible"><path d="M 0 0m 2.0856 -0.968v 8.272h 1.1088v -8.272h -1.1088Z "/></symbol><symbol id="gD7389F20B79CEB219257CFD97F88FFBB" overflow="visible"><path d="M 0 0m 1.232 2.3936v 1.0208h 2.816v -1.0208h -2.816Z "/></symbol><symbol id="gF5EB9C4AF8F52FC3BE778C06282A1C81" overflow="visible"><path d="M 0 0m 0.528 -1.2144v 0.9944h 4.224v -0.9944h -4.224Z "/></symbol><symbol id="gE7C7EE8E3A5B5147C6133B0F03DF6320" overflow="visible"><path d="M 0 0m 2.1296 3.784l -0.0792 2.64h 1.1792l -0.0704 -2.64h -1.0296Z "/></symbol></defs></svg>