<svg viewBox="0 0 97.146456693 114.042456693" width="97.146456693pt" height="114.042456693pt" xmlns="http://www.w3.org/2000/svg" xmlns:xlink="http://www.w3.org/1999/xlink" xmlns:h5="http://www.w3.org/1999/xhtml"><path fill="#ffffff" fill-rule="nonzero" d="M 0 0v 114.042456693h 97.146456693v -114.042456693Z "/><g transform="translate(14.173228346 14.173228346)"><path fill="#000000" fill-rule="nonzero" d="M 0 0m 0 5c 0 -2.761423749 2.238576251 -5 5 -5h 58.8c 2.761423749 0 5 2.238576251 5 5v 75.696c 0 2.761423749 -2.238576251 5 -5 5h -58.8c -2.761423749 0 -5 -2.238576251 -5 -5Z "/><g transform="translate(8 16.976)"/><g transform="translate(8 16.976)"/><g transform="translate(8 8)"><g transform="matrix(1 0 0 -1 0 8.976)"><use xlink:href="#gF5EB9C4AF8F52FC3BE778C06282A1C81" x="15.84" y="0" fill="#ffff00" fill-rule="nonzero"/><use xlink:href="#gF5EB9C4AF8F52FC3BE778C06282A1C81" x="21.12" y="0" fill="#ffff00" fill-rule="nonzero"/><use xlink:href="#gF5EB9C4AF8F52FC3BE778C06282A1C81" x="26.4" y="0" fill="#ffff00" fill-rule="nonzero"/></g></g><g transform="translate(60.8 16.976)"/><g transform="translate(60.8 8)"/><g transform="translate(8 28.592)"/><g transform="translate(8 28.592)"/><g transform="translate(8 28.592)"/><g transform="translate(8 19.616)"><g transform="matrix(1 0 0 -1 0 8.976)"><use xlink:href="#g9D2891D8A1DDB4C6FB1031ACEA3D5DA3" x="5.28" y="0" fill="#ffff00" fill-rule="nonzero"/><use xlink:href="#g2D4B876C86BAF6575F8185E56FE2296D" x="15.84" y="0" fill="#ffff00" fill-rule="nonzero"/><use xlink:href="#gD37CA3356587AB4678BD772F473C04E9" x="36.96" y="0" fill="#ffff00" fill-rule="nonzero"/></g></g><g transform="translate(60.8 28.592)"/><g transform="translate(60.8 19.616)"/><g transform="translate(8 40.208)"/><g transform="translate(8 40.208)"/><g transform="translate(8 40.208)"/><g transform="translate(8 31.232)"><g transform="matrix(1 0 0 -1 0 8.976)"><use xlink:href="#gDC7654F9A9404D3525A3900DED6B06C6" x="0" y="0" fill="#ffff00" fill-rule="nonzero"/><use xlink:href="#g7981C2B93BC601072CA580746C659694" x="21.12" y="0" fill="#ffff00" fill-rule="nonzero"/><use xlink:href="#g7981C2B93BC601072CA580746C659694" x="36.96" y="0" fill="#ffff00" fill-rule="nonzero"/><use xlink:href="#gDC7654F9A9404D3525A3900DED6B06C6" x="42.24" y="0" fill="#ffff00" fill-rule="nonzero"/></g></g><g transform="translate(60.8 40.208)"/><g transform="translate(60.8 31.232)"/><g transform="translate(8 51.824)"/><g transform="translate(8 51.824)"/><g transform="translate(8 51.824)"/><g transform="translate(8 42.848)"><g transform="matrix(1 0 0 -1 0 8.976)"><use xlink:href="#gD7389F20B79CEB219257CFD97F88FFBB" x="0" y="0" fill="#ffff00" fill-rule="nonzero"/><use xlink:href="#g3FD66DFBDBEF59351D4AC30A46EBE8A5" x="5.28" y="0" fill="#ffff00" fill-rule="nonzero"/><use xlink:href="#gF5EB9C4AF8F52FC3BE778C06282A1C81" x="15.84" y="0" fill="#ffff00" fill-rule="nonzero"/><use xlink:href="#g7981C2B93BC601072CA580746C659694" x="21.12" y="0" fill="#ffff00" fill-rule="nonzero"/><use xlink:href="#gB0CEAA50A2EBE29340A62EE9B8914EEC" x="31.68" y="0" fill="#ffff00" fill-rule="nonzero"/><use xlink:href="#g3FD66DFBDBEF59351D4AC30A46EBE8A5" x="36.96" y="0" fill="#ffff00" fill-rule="nonzero"/><use xlink:href="#gD7389F20B79CEB219257CFD97F88FFBB" x="42.24" y="0" fill="#ffff00" fill-rule="nonzero"/></g></g><g transform="translate(60.8 51.824)"/><g transform="translate(60.8 42.848)"/><g transform="translate(8 63.44)"/><g transform="translate(8 63.44)"/><g transform="translate(8 63.44)"/><g transform="translate(8 54.464)"><g transform="matrix(1 0 0 -1 0 8.976)"><use xlink:href="#g2D4B876C86BAF6575F8185E56FE2296D" x="10.56" y="0" fill="#ffff00" fill-rule="nonzero"/><use xlink:href="#gD7389F20B79CEB219257CFD97F88FFBB" x="21.12" y="0" fill="#ffff00" fill-rule="nonzero"/><use xlink:href="#gD7389F20B79CEB219257CFD97F88FFBB" x="26.4" y="0" fill="#ffff00" fill-rule="nonzero"/><use xlink:href="#gD7389F20B79CEB219257CFD97F88FFBB" x="31.68" y="0" fill="#ffff00" fill-rule="nonzero"/><use xlink:href="#gD7389F20B79CEB219257CFD97F88FFBB" x="36.96" y="0" fill="#ffff00" fill-rule="nonzero"/><use xlink:href="#g2D4B876C86BAF6575F8185E56FE2296D" x="47.52" y="0" fill="#ffff00" fill-rule="nonzero"/></g></g><g transform="translate(60.8 63.44)"/><g transform="translate(60.8 54.464)"/><g transform="translate(8 66.08)"/><g transform="translate(8 77.696)"/></g><defs><symbol id="gF5EB9C4AF8F52FC3BE778C06282A1C81" overflow="visible"><path d="M 0 0m 0.528 -1.2144v 0.9944h 4.224v -0.9944h -4.224Z "/></symbol><symbol id="g9D2891D8A1DDB4C6FB1031ACEA3D5DA3" overflow="visible"><path d="M 0 0m 0.528 -0.968l 3.08 8.272h 1.144l -3.08 -8.272h -1.144Z "/></symbol><symbol id="g2D4B876C86BAF6575F8185E56FE2296D" overflow="visible"><path d="M 0 0m 2.2792 5.676l -1.0208 1.232h 1.2144l 0.9416 -1.232h -1.1352Z "/></symbol><symbol id="gD37CA3356587AB4678BD772F473C04E9" overflow="visible"><path d="M 0 0m 3.5992 -0.968l -3.0712 8.272h 1.144l 3.0712 -8.272h -1.144Z "/></symbol><symbol id="gDC7654F9A9404D3525A3900DED6B06C6" overflow="visible"><path d="M 0 0m 2.0856 -0.968v 8.272h 1.1088v -8.272h -1.1088Z "/></symbol><symbol id="g7981C2B93BC601072CA580746C659694" overflow="visible"><path d="M 0 0m 2.64 3.4584q -0.3784 0 -0.5984 0.2024q -0.22 0.2024 -0.22 0.5368q 0 0.3256 0.22 0.528q 0.22 0.2024 0.5984 0.2024q 0.3784 0 0.5984 -0.2024q 0.22 -0.2024 0.22 -0.528q 0 -0.3344 -0.22 -0.5368q -0.22 -0.2024 -0.5984 -0.2024Z m 0 -3.5464q -0.3784 0 -0.5984 0.2024q -0.22 0.2024 -0.22 0.528q 0 0.3344 0.22 0.5368q 0.22 0.2024 0.5984 0.2024q 0.3784 0 0.5984 -0.2024q 0.22 -0.2024 0.22 -0.5368q 0 -0.3256 -0.22 -0.528q -0.22 -0.2024 -0.5984 -0.2024Z "/></symbol><symbol id="gD7389F20B79CEB219257CFD97F88FFBB" overflow="visible"><path d="M 0 0m 1.232 2.3936v 1.0208h 2.816v -1.0208h -2.816Z "/></symbol><symbol id="g3FD66DFBDBEF59351D4AC30A46EBE8A5" overflow="visible"><path d="M 0 0m 2.64 -0.088q -0.3696 0 -0.594 0.2244q -0.2244 0.2244 -0.2244 0.5852q 0 0.3608 0.2244 0.5896q 0.2244 0.2288 0.594 0.2288q 0.3696 0 0.594 -0.2288q 0.2244 -0.2288 0.2244 -0.5896q 0 -0.3608 -0.2244 -0.5852q -0.2244 -0.2244 -0.594 -0.2244Z "/></symbol><symbol id="gB0CEAA50A2EBE29340A62EE9B8914EEC" overflow="visible"><path d="M 0 0m -4.752 -1.2144v 0.9944h 9.504v -0.9944h -9.504Z "/></symbol></defs></svg>