<svg viewBox="0 0 165.786456693 160.506456693" width="165.786456693pt" height="160.506456693pt" xmlns="http://www.w3.org/2000/svg" xmlns:xlink="http://www.w3.org/1999/xlink" xmlns:h5="http://www.w3.org/1999/xhtml"><path fill="#ffffff" fill-rule="nonzero" d="M 0 0v 160.506456693h 165.786456693v -160.506456693Z "/><g transform="translate(14.173228346 14.173228346)"><path fill="#000000" fill-rule="nonzero" d="M 0 0m 0 5c 0 -2.761423749 2.238576251 -5 5 -5h 127.44c 2.761423749 0 5 2.238576251 5 5v 122.16c 0 2.761423749 -2.238576251 5 -5 5h -127.44c -2.761423749 0 -5 -2.238576251 -5 -5Z "/><g transform="translate(8 16.976)"/><g transform="translate(8 16.976)"/><g transform="translate(8 8)"><g transform="matrix(1 0 0 -1 0 8.976)"><use xlink:href="#g3FD66DFBDBEF59351D4AC30A46EBE8A5" x="31.68" y="0" fill="#ff00ff" fill-rule="nonzero"/><use xlink:href="#g9D2891D8A1DDB4C6FB1031ACEA3D5DA3" x="36.96" y="0" fill="#ff00ff" fill-rule="nonzero"/><use xlink:href="#g9D2891D8A1DDB4C6FB1031ACEA3D5DA3" x="42.24" y="0" fill="#ff00ff" fill-rule="nonzero"/><use xlink:href="#g9D2891D8A1DDB4C6FB1031ACEA3D5DA3" x="47.52" y="0" fill="#ff00ff" fill-rule="nonzero"/><use xlink:href="#g9D2891D8A1DDB4C6FB1031ACEA3D5DA3" x="52.8" y="0" fill="#ff00ff" fill-rule="nonzero"/><use xlink:href="#gD37CA3356587AB4678BD772F473C04E9" x="58.08" y="0" fill="#ff00ff" fill-rule="nonzero"/><use xlink:href="#gD37CA3356587AB4678BD772F473C04E9" x="63.36" y="0" fill="#ff00ff" fill-rule="nonzero"/><use xlink:href="#gD37CA3356587AB4678BD772F473C04E9" x="68.64" y="0" fill="#ff00ff" fill-rule="nonzero"/><use xlink:href="#gB384DBF4C682CF9DB544F996A625D04" x="79.2" y="0" fill="#ff00ff" fill-rule="nonzero"/><use xlink:href="#gD37CA3356587AB4678BD772F473C04E9" x="84.48" y="0" fill="#ff00ff" fill-rule="nonzero"/><use xlink:href="#g3FD66DFBDBEF59351D4AC30A46EBE8A5" x="89.76" y="0" fill="#ff00ff" fill-rule="nonzero"/></g></g><g transform="translate(129.44 16.976)"/><g transform="translate(129.44 8)"/><g transform="translate(8 28.592)"/><g transform="translate(8 28.592)"/><g transform="translate(8 28.592)"/><g transform="translate(8 19.616)"><g transform="matrix(1 0 0 -1 0 8.976)"><use xlink:href="#gB384DBF4C682CF9DB544F996A625D04" x="31.68" y="0" fill="#ff00ff" fill-rule="nonzero"/><use xlink:href="#gF5EB9C4AF8F52FC3BE778C06282A1C81" x="36.96" y="0" fill="#ff00ff" fill-rule="nonzero"/><use xlink:href="#gD37CA3356587AB4678BD772F473C04E9" x="89.76" y="0" fill="#ff00ff" fill-rule="nonzero"/><use xlink:href="#gD37CA3356587AB4678BD772F473C04E9" x="95.04" y="0" fill="#ff00ff" fill-rule="nonzero"/></g></g><g transform="translate(129.44 28.592)"/><g transform="translate(129.44 19.616)"/><g transform="translate(8 40.208)"/><g transform="translate(8 40.208)"/><g transform="translate(8 40.208)"/><g transform="translate(8 31.232)"><g transform="matrix(1 0 0 -1 0 8.976)"><use xlink:href="#g9D2891D8A1DDB4C6FB1031ACEA3D5DA3" x="21.12" y="0" fill="#ff00ff" fill-rule="nonzero"/><use xlink:href="#gF5EB9C4AF8F52FC3BE778C06282A1C81" x="26.4" y="0" fill="#ff00ff" fill-rule="nonzero"/></g></g><g transform="translate(50.24 31.232)"><g transform="matrix(1 0 0 -1 0 8.976)"><use xlink:href="#gCB2DA5367A0C319E23A38A8F9D01E145" x="0" y="0" fill="#ffffff" fill-rule="nonzero"/><use xlink:href="#gCB2DA5367A0C319E23A38A8F9D01E145" x="5.28" y="0" fill="#ffffff" fill-rule="nonzero"/><use xlink:href="#gCB2DA5367A0C319E23A38A8F9D01E145" x="10.56" y="0" fill="#ffffff" fill-rule="nonzero"/><use xlink:href="#gCB2DA5367A0C319E23A38A8F9D01E145" x="15.84" y="0" fill="#ffffff" fill-rule="nonzero"/><use xlink:href="#gCB2DA5367A0C319E23A38A8F9D01E145" x="21.12" y="0" fill="#ffffff" fill-rule="nonzero"/><use xlink:href="#gCB2DA5367A0C319E23A38A8F9D01E145" x="26.4" y="0" fill="#ffffff" fill-rule="nonzero"/><use xlink:href="#gCB2DA5367A0C319E23A38A8F9D01E145" x="31.68" y="0" fill="#ffffff" fill-rule="nonzero"/><use xlink:href="#gCB2DA5367A0C319E23A38A8F9D01E145" x="36.96" y="0" fill="#ffffff" fill-rule="nonzero"/><use xlink:href="#gCB2DA5367A0C319E23A38A8F9D01E145" x="42.24" y="0" fill="#ffffff" fill-rule="nonzero"/><use xlink:href="#gCB2DA5367A0C319E23A38A8F9D01E145" x="47.52" y="0" fill="#ffffff" fill-rule="nonzero"/><use xlink:href="#gCB2DA5367A0C319E23A38A8F9D01E145" x="52.8" y="0" fill="#ffffff" fill-rule="nonzero"/><use xlink:href="#gCB2DA5367A0C319E23A38A8F9D01E145" x="58.08" y="0" fill="#ffffff" fill-rule="nonzero"/><use xlink:href="#gCB2DA5367A0C319E23A38A8F9D01E145" x="63.36" y="0" fill="#ffffff" fill-rule="nonzero"/><use xlink:href="#gCB2DA5367A0C319E23A38A8F9D01E145" x="68.64" y="0" fill="#ffffff" fill-rule="nonzero"/></g></g><g transform="translate(129.44 40.208)"/><g transform="translate(129.44 31.232)"/><g transform="translate(8 51.824)"/><g transform="translate(8 51.824)"/><g transform="translate(8 51.824)"/><g transform="translate(8 42.848)"><g transform="matrix(1 0 0 -1 0 8.976)"><use xlink:href="#gB384DBF4C682CF9DB544F996A625D04" x="21.12" y="0" fill="#ff00ff" fill-rule="nonzero"/><use xlink:href="#gFB45AF293AD5F60B86F35D871711C652" x="100.32" y="0" fill="#ff00ff" fill-rule="nonzero"/><use xlink:href="#gD37CA3356587AB4678BD772F473C04E9" x="105.6" y="0" fill="#ff00ff" fill-rule="nonzero"/></g></g><g transform="translate(129.44 51.824)"/><g transform="translate(129.44 42.848)"/><g transform="translate(8 63.44)"/><g transform="translate(8 63.44)"/><g transform="translate(8 63.44)"/><g transform="translate(8 54.464)"><g transform="matrix(1 0 0 -1 0 8.976)"><use xlink:href="#gCB2DA5367A0C319E23A38A8F9D01E145" x="0" y="0" fill="#ffffff" fill-rule="nonzero"/><use xlink:href="#gCB2DA5367A0C319E23A38A8F9D01E145" x="5.28" y="0" fill="#ffffff" fill-rule="nonzero"/><use xlink:href="#gCB2DA5367A0C319E23A38A8F9D01E145" x="10.56" y="0" fill="#ffffff" fill-rule="nonzero"/><use xlink:href="#gCB2DA5367A0C319E23A38A8F9D01E145" x="15.84" y="0" fill="#ffffff" fill-rule="nonzero"/><use xlink:href="#gCB2DA5367A0C319E23A38A8F9D01E145" x="21.12" y="0" fill="#ffffff" fill-rule="nonzero"/><use xlink:href="#gCB2DA5367A0C319E23A38A8F9D01E145" x="26.4" y="0" fill="#ffffff" fill-rule="nonzero"/><use xlink:href="#gCB2DA5367A0C319E23A38A8F9D01E145" x="31.68" y="0" fill="#ffffff" fill-rule="nonzero"/><use xlink:href="#gCB2DA5367A0C319E23A38A8F9D01E145" x="36.96" y="0" fill="#ffffff" fill-rule="nonzero"/><use xlink:href="#gCB2DA5367A0C319E23A38A8F9D01E145" x="42.24" y="0" fill="#ffffff" fill-rule="nonzero"/><use xlink:href="#gCB2DA5367A0C319E23A38A8F9D01E145" x="47.52" y="0" fill="#ffffff" fill-rule="nonzero"/><use xlink:href="#gCB2DA5367A0C319E23A38A8F9D01E145" x="52.8" y="0" fill="#ffffff" fill-rule="nonzero"/><use xlink:href="#gCB2DA5367A0C319E23A38A8F9D01E145" x="58.08" y="0" fill="#ffffff" fill-rule="nonzero"/><use xlink:href="#gCB2DA5367A0C319E23A38A8F9D01E145" x="63.36" y="0" fill="#ffffff" fill-rule="nonzero"/><use xlink:href="#gCB2DA5367A0C319E23A38A8F9D01E145" x="68.64" y="0" fill="#ffffff" fill-rule="nonzero"/><use xlink:href="#gCB2DA5367A0C319E23A38A8F9D01E145" x="73.92" y="0" fill="#ffffff" fill-rule="nonzero"/></g></g><g transform="translate(108.32 54.464)"><g transform="matrix(1 0 0 -1 0 8.976)"><use xlink:href="#gDC7654F9A9404D3525A3900DED6B06C6" x="0" y="0" fill="#ff00ff" fill-rule="nonzero"/><use xlink:href="#gCB2DA5367A0C319E23A38A8F9D01E145" x="5.28" y="0" fill="#ff00ff" fill-rule="nonzero"/></g></g><g transform="translate(129.44 63.44)"/><g transform="translate(129.44 54.464)"/><g transform="translate(8 75.056)"/><g transform="translate(8 75.056)"/><g transform="translate(8 75.056)"/><g transform="translate(8 66.08)"><g transform="matrix(1 0 0 -1 0 8.976)"><use xlink:href="#gE76958D329D85437DFF23F030775ED17" x="21.12" y="0" fill="#ff00ff" fill-rule="nonzero"/><use xlink:href="#g850E9E2AAD0B44B71808C10A4D6C58A6" x="105.6" y="0" fill="#ff00ff" fill-rule="nonzero"/></g></g><g transform="translate(129.44 75.056)"/><g transform="translate(129.44 66.08)"/><g transform="translate(8 86.672)"/><g transform="translate(8 86.672)"/><g transform="translate(8 86.672)"/><g transform="translate(8 77.696)"><g transform="matrix(1 0 0 -1 0 8.976)"><use xlink:href="#gD37CA3356587AB4678BD772F473C04E9" x="21.12" y="0" fill="#ff00ff" fill-rule="nonzero"/><use xlink:href="#gFB45AF293AD5F60B86F35D871711C652" x="26.4" y="0" fill="#ff00ff" fill-rule="nonzero"/></g></g><g transform="translate(55.52 77.696)"><g transform="matrix(1 0 0 -1 0 8.976)"><use xlink:href="#gCB2DA5367A0C319E23A38A8F9D01E145" x="0" y="0" fill="#ffffff" fill-rule="nonzero"/><use xlink:href="#gCB2DA5367A0C319E23A38A8F9D01E145" x="5.28" y="0" fill="#ffffff" fill-rule="nonzero"/><use xlink:href="#gCB2DA5367A0C319E23A38A8F9D01E145" x="10.56" y="0" fill="#ffffff" fill-rule="nonzero"/><use xlink:href="#gCB2DA5367A0C319E23A38A8F9D01E145" x="15.84" y="0" fill="#ffffff" fill-rule="nonzero"/><use xlink:href="#gCB2DA5367A0C319E23A38A8F9D01E145" x="21.12" y="0" fill="#ffffff" fill-rule="nonzero"/><use xlink:href="#gCB2DA5367A0C319E23A38A8F9D01E145" x="26.4" y="0" fill="#ffffff" fill-rule="nonzero"/><use xlink:href="#gCB2DA5367A0C319E23A38A8F9D01E145" x="31.68" y="0" fill="#ffffff" fill-rule="nonzero"/><use xlink:href="#gCB2DA5367A0C319E23A38A8F9D01E145" x="36.96" y="0" fill="#ffffff" fill-rule="nonzero"/><use xlink:href="#gCB2DA5367A0C319E23A38A8F9D01E145" x="42.24" y="0" fill="#ffffff" fill-rule="nonzero"/><use xlink:href="#gCB2DA5367A0C319E23A38A8F9D01E145" x="47.52" y="0" fill="#ffffff" fill-rule="nonzero"/><use xlink:href="#gCB2DA5367A0C319E23A38A8F9D01E145" x="52.8" y="0" fill="#ffffff" fill-rule="nonzero"/><use xlink:href="#gCB2DA5367A0C319E23A38A8F9D01E145" x="58.08" y="0" fill="#ffffff" fill-rule="nonzero"/><use xlink:href="#gCB2DA5367A0C319E23A38A8F9D01E145" x="63.36" y="0" fill="#ffffff" fill-rule="nonzero"/><use xlink:href="#gCB2DA5367A0C319E23A38A8F9D01E145" x="68.64" y="0" fill="#ffffff" fill-rule="nonzero"/></g></g><g transform="translate(129.44 86.672)"/><g transform="translate(129.44 77.696)"/><g transform="translate(8 98.288)"/><g transform="translate(8 98.288)"/><g transform="translate(8 98.288)"/><g transform="translate(8 89.312)"><g transform="matrix(1 0 0 -1 0 8.976)"><use xlink:href="#g850E9E2AAD0B44B71808C10A4D6C58A6" x="31.68" y="0" fill="#ff00ff" fill-rule="nonzero"/><use xlink:href="#gCBB1D2557A57459D9C02B5F7104802E9" x="36.96" y="0" fill="#ff00ff" fill-rule="nonzero"/><use xlink:href="#g3FD66DFBDBEF59351D4AC30A46EBE8A5" x="84.48" y="0" fill="#ff00ff" fill-rule="nonzero"/><use xlink:href="#gB384DBF4C682CF9DB544F996A625D04" x="95.04" y="0" fill="#ff00ff" fill-rule="nonzero"/></g></g><g transform="translate(129.44 98.288)"/><g transform="translate(129.44 89.312)"/><g transform="translate(8 109.904)"/><g transform="translate(8 109.904)"/><g transform="translate(8 109.904)"/><g transform="translate(8 100.928)"><g transform="matrix(1 0 0 -1 0 8.976)"><use xlink:href="#gE7C7EE8E3A5B5147C6133B0F03DF6320" x="31.68" y="0" fill="#ff00ff" fill-rule="nonzero"/><use xlink:href="#gF5EB9C4AF8F52FC3BE778C06282A1C81" x="36.96" y="0" fill="#ff00ff" fill-rule="nonzero"/><use xlink:href="#gE60B19195F8741E658094001AE88BD2C" x="52.8" y="0" fill="#ff00ff" fill-rule="nonzero"/><use xlink:href="#gD37CA3356587AB4678BD772F473C04E9" x="58.08" y="0" fill="#ff00ff" fill-rule="nonzero"/><use xlink:href="#gD37CA3356587AB4678BD772F473C04E9" x="63.36" y="0" fill="#ff00ff" fill-rule="nonzero"/><use xlink:href="#gD37CA3356587AB4678BD772F473C04E9" x="68.64" y="0" fill="#ff00ff" fill-rule="nonzero"/><use xlink:href="#gB384DBF4C682CF9DB544F996A625D04" x="79.2" y="0" fill="#ff00ff" fill-rule="nonzero"/><use xlink:href="#gF5EB9C4AF8F52FC3BE778C06282A1C81" x="84.48" y="0" fill="#ff00ff" fill-rule="nonzero"/><use xlink:href="#gE7C7EE8E3A5B5147C6133B0F03DF6320" x="89.76" y="0" fill="#ff00ff" fill-rule="nonzero"/></g></g><g transform="translate(129.44 109.904)"/><g transform="translate(129.44 100.928)"/><g transform="translate(8 112.544)"/><g transform="translate(8 124.16)"/></g><defs><symbol id="g3FD66DFBDBEF59351D4AC30A46EBE8A5" overflow="visible"><path d="M 0 0m 2.64 -0.088q -0.3696 0 -0.594 0.2244q -0.2244 0.2244 -0.2244 0.5852q 0 0.3608 0.2244 0.5896q 0.2244 0.2288 0.594 0.2288q 0.3696 0 0.594 -0.2288q 0.2244 -0.2288 0.2244 -0.5896q 0 -0.3608 -0.2244 -0.5852q -0.2244 -0.2244 -0.594 -0.2244Z "/></symbol><symbol id="g9D2891D8A1DDB4C6FB1031ACEA3D5DA3" overflow="visible"><path d="M 0 0m 0.528 -0.968l 3.08 8.272h 1.144l -3.08 -8.272h -1.144Z "/></symbol><symbol id="gD37CA3356587AB4678BD772F473C04E9" overflow="visible"><path d="M 0 0m 3.5992 -0.968l -3.0712 8.272h 1.144l 3.0712 -8.272h -1.144Z "/></symbol><symbol id="gB384DBF4C682CF9DB544F996A625D04" overflow="visible"><path d="M 0 0m -0.132 -0.968l 3.08 8.272h 1.144l -3.08 -8.272h -1.144Z m -3.96 0l 3.08 8.272h 1.144l -3.08 -8.272h -1.144Z "/></symbol><symbol id="gF5EB9C4AF8F52FC3BE778C06282A1C81" overflow="visible"><path d="M 0 0m 0.528 -1.2144v 0.9944h 4.224v -0.9944h -4.224Z "/></symbol><symbol id="gCB2DA5367A0C319E23A38A8F9D01E145" overflow="visible"><path d="M 0 0m 0.6776 0l 0.2992 1.672h -0.6688v 0.748h 0.792l 0.2728 1.584h -0.7568v 0.748h 0.8888l 0.2992 1.672h 0.7744l -0.2992 -1.672h 1.2496l 0.2992 1.672h 0.7744l -0.2992 -1.672h 0.6688v -0.748h -0.8008l -0.2728 -1.584h 0.7656v -0.748h -0.8976l -0.2904 -1.672h -0.7744l 0.2992 1.672h -1.2584l -0.2904 -1.672h -0.7744Z m 1.1968 2.42h 1.2496l 0.2728 1.584h -1.2496l -0.2728 -1.584Z "/></symbol><symbol id="gFB45AF293AD5F60B86F35D871711C652" overflow="visible"><path d="M 0 0m 1.6104 0.8624l -0.7304 0.5192l 0.616 0.8712q 0.1232 0.176 0.2772 0.3388q 0.154 0.1628 0.33 0.3124q -0.4664 0.044 -0.8272 0.176l -0.9944 0.3696l 0.308 0.836l 0.9944 -0.3608q 0.352 -0.132 0.7304 -0.3784q -0.0528 0.2024 -0.088 0.4092q -0.0352 0.2068 -0.0352 0.4356v 1.0648h 0.8976v -1.0648q 0 -0.2288 -0.0352 -0.4356q -0.0352 -0.2068 -0.0968 -0.4092q 0.3872 0.2464 0.7392 0.3784l 0.9944 0.3608l 0.308 -0.836l -0.9944 -0.3696q -0.3608 -0.132 -0.8272 -0.176q 0.176 -0.1496 0.33 -0.3124q 0.154 -0.1628 0.2772 -0.3388l 0.616 -0.8712l -0.7304 -0.5192l -0.6248 0.8712q -0.1232 0.176 -0.2244 0.374q -0.1012 0.198 -0.1804 0.4092q -0.0792 -0.2024 -0.1804 -0.4048q -0.1012 -0.2024 -0.2244 -0.3784l -0.6248 -0.8712Z "/></symbol><symbol id="gDC7654F9A9404D3525A3900DED6B06C6" overflow="visible"><path d="M 0 0m 2.0856 -0.968v 8.272h 1.1088v -8.272h -1.1088Z "/></symbol><symbol id="gE76958D329D85437DFF23F030775ED17" overflow="visible"><path d="M 0 0m -0.6424 -0.968l -3.0624 8.272h 1.144l 2.3232 -6.3096l 0.2376 -0.7744l 0.2376 0.7744l 2.3056 6.3096h 1.1616l -3.0624 -8.272h -1.2848Z "/></symbol><symbol id="g850E9E2AAD0B44B71808C10A4D6C58A6" overflow="visible"><path d="M 0 0m -3.6696 0.1584l -0.7304 0.5192l 0.616 0.8712q 0.1232 0.176 0.2772 0.3388q 0.154 0.1628 0.33 0.3124q -0.4664 0.044 -0.8272 0.176l -0.9944 0.3696l 0.308 0.836l 0.9944 -0.3608q 0.352 -0.132 0.7304 -0.3784q -0.0528 0.2024 -0.088 0.4092q -0.0352 0.2068 -0.0352 0.4356v 1.0648h 0.8976v -1.0648q 0 -0.2288 -0.0352 -0.4356q -0.0352 -0.2068 -0.0968 -0.4092q 0.3872 0.2464 0.7392 0.3784l 0.9944 0.3608l 0.308 -0.836l -0.9944 -0.3696q -0.3608 -0.132 -0.8272 -0.176q 0.176 -0.1496 0.33 -0.3124q 0.154 -0.1628 0.2772 -0.3388l 0.616 -0.8712l -0.7304 -0.5192l -0.6248 0.8712q -0.1232 0.176 -0.2244 0.374q -0.1012 0.198 -0.1804 0.4092q -0.0792 -0.2024 -0.1804 -0.4048q -0.1012 -0.2024 -0.2244 -0.3784l -0.6248 -0.8712Z m 4.1976 -1.1264l 3.08 8.272h 1.144l -3.08 -8.272h -1.144Z "/></symbol><symbol id="gCBB1D2557A57459D9C02B5F7104802E9" overflow="visible"><path d="M 0 0m 1.672 -1.408l 0.4664 2.6928h 1.2584l -0.6688 -2.6928h -1.056Z "/></symbol><symbol id="gE7C7EE8E3A5B5147C6133B0F03DF6320" overflow="visible"><path d="M 0 0m 2.1296 3.784l -0.0792 2.64h 1.1792l -0.0704 -2.64h -1.0296Z "/></symbol><symbol id="gE60B19195F8741E658094001AE88BD2C" overflow="visible"><path d="M 0 0m -8.976 -0.968l 3.08 8.272h 1.144l -3.08 -8.272h -1.144Z m 4.224 0l 3.08 8.272h 1.144l -3.08 -8.272h -1.144Z m 4.224 0l 3.08 8.272h 1.144l -3.08 -8.272h -1.144Z "/></symbol></defs></svg>