<svg viewBox="0 0 139.386456693 137.274456693" width="139.386456693pt" height="137.274456693pt" xmlns="http://www.w3.org/2000/svg" xmlns:xlink="http://www.w3.org/1999/xlink" xmlns:h5="http://www.w3.org/1999/xhtml"><path fill="#ffffff" fill-rule="nonzero" d="M 0 0v 137.274456693h 139.386456693v -137.274456693Z "/><g transform="translate(14.173228346 14.173228346)"><path fill="#000000" fill-rule="nonzero" d="M 0 0m 0 5c 0 -2.761423749 2.238576251 -5 5 -5h 101.04c 2.761423749 0 5 2.238576251 5 5v 98.928c 0 2.761423749 -2.238576251 5 -5 5h -101.04c -2.761423749 0 -5 -2.238576251 -5 -5Z "/><g transform="translate(8 16.976)"/><g transform="translate(8 16.976)"/><g transform="translate(8 8)"><g transform="matrix(1 0 0 -1 0 8.976)"><use xlink:href="#gDC7654F9A9404D3525A3900DED6B06C6" x="0" y="0" fill="#ffff00" fill-rule="nonzero"/><use xlink:href="#g3FD66DFBDBEF59351D4AC30A46EBE8A5" x="5.28" y="0" fill="#ffff00" fill-rule="nonzero"/><use xlink:href="#gB0CEAA50A2EBE29340A62EE9B8914EEC" x="15.84" y="0" fill="#ffff00" fill-rule="nonzero"/><use xlink:href="#gB0CEAA50A2EBE29340A62EE9B8914EEC" x="79.2" y="0" fill="#ffff00" fill-rule="nonzero"/><use xlink:href="#g3FD66DFBDBEF59351D4AC30A46EBE8A5" x="84.48" y="0" fill="#ffff00" fill-rule="nonzero"/><use xlink:href="#gDC7654F9A9404D3525A3900DED6B06C6" x="89.76" y="0" fill="#ffff00" fill-rule="nonzero"/></g></g><g transform="translate(103.04 16.976)"/><g transform="translate(103.04 8)"/><g transform="translate(8 28.592)"/><g transform="translate(8 28.592)"/><g transform="translate(8 28.592)"/><g transform="translate(8 19.616)"><g transform="matrix(1 0 0 -1 0 8.976)"><use xlink:href="#gDC7654F9A9404D3525A3900DED6B06C6" x="0" y="0" fill="#ffff00" fill-rule="nonzero"/><use xlink:href="#gB0CEAA50A2EBE29340A62EE9B8914EEC" x="10.56" y="0" fill="#ffff00" fill-rule="nonzero"/><use xlink:href="#gD37CA3356587AB4678BD772F473C04E9" x="21.12" y="0" fill="#ffff00" fill-rule="nonzero"/><use xlink:href="#g9D2891D8A1DDB4C6FB1031ACEA3D5DA3" x="68.64" y="0" fill="#ffff00" fill-rule="nonzero"/><use xlink:href="#gB0CEAA50A2EBE29340A62EE9B8914EEC" x="84.48" y="0" fill="#ffff00" fill-rule="nonzero"/><use xlink:href="#gDC7654F9A9404D3525A3900DED6B06C6" x="89.76" y="0" fill="#ffff00" fill-rule="nonzero"/></g></g><g transform="translate(103.04 28.592)"/><g transform="translate(103.04 19.616)"/><g transform="translate(8 40.208)"/><g transform="translate(8 40.208)"/><g transform="translate(8 31.232)"><g transform="matrix(1 0 0 -1 0 8.976)"/></g><g transform="translate(23.84 31.232)"><g transform="matrix(1 0 0 -1 0 8.976)"><use xlink:href="#gD37CA3356587AB4678BD772F473C04E9" x="0" y="0" fill="#ffff00" fill-rule="nonzero"/><use xlink:href="#gD37CA3356587AB4678BD772F473C04E9" x="10.56" y="0" fill="#ffff00" fill-rule="nonzero"/><use xlink:href="#g9D2891D8A1DDB4C6FB1031ACEA3D5DA3" x="47.52" y="0" fill="#ffff00" fill-rule="nonzero"/><use xlink:href="#g9D2891D8A1DDB4C6FB1031ACEA3D5DA3" x="58.08" y="0" fill="#ffff00" fill-rule="nonzero"/></g></g><g transform="translate(103.04 40.208)"/><g transform="translate(103.04 31.232)"/><g transform="translate(8 51.824)"/><g transform="translate(8 51.824)"/><g transform="translate(8 42.848)"><g transform="matrix(1 0 0 -1 0 8.976)"/></g><g transform="translate(29.12 42.848)"><g transform="matrix(1 0 0 -1 0 8.976)"><use xlink:href="#gD37CA3356587AB4678BD772F473C04E9" x="0" y="0" fill="#ffff00" fill-rule="nonzero"/><use xlink:href="#gD37CA3356587AB4678BD772F473C04E9" x="10.56" y="0" fill="#ffff00" fill-rule="nonzero"/><use xlink:href="#g9D2891D8A1DDB4C6FB1031ACEA3D5DA3" x="36.96" y="0" fill="#ffff00" fill-rule="nonzero"/><use xlink:href="#g9D2891D8A1DDB4C6FB1031ACEA3D5DA3" x="47.52" y="0" fill="#ffff00" fill-rule="nonzero"/></g></g><g transform="translate(103.04 51.824)"/><g transform="translate(103.04 42.848)"/><g transform="translate(8 63.44)"/><g transform="translate(8 63.44)"/><g transform="translate(8 54.464)"><g transform="matrix(1 0 0 -1 0 8.976)"/></g><g transform="translate(34.4 54.464)"><g transform="matrix(1 0 0 -1 0 8.976)"><use xlink:href="#gD37CA3356587AB4678BD772F473C04E9" x="0" y="0" fill="#ffff00" fill-rule="nonzero"/><use xlink:href="#gD37CA3356587AB4678BD772F473C04E9" x="10.56" y="0" fill="#ffff00" fill-rule="nonzero"/><use xlink:href="#g9D2891D8A1DDB4C6FB1031ACEA3D5DA3" x="26.4" y="0" fill="#ffff00" fill-rule="nonzero"/><use xlink:href="#g9D2891D8A1DDB4C6FB1031ACEA3D5DA3" x="36.96" y="0" fill="#ffff00" fill-rule="nonzero"/></g></g><g transform="translate(103.04 63.44)"/><g transform="translate(103.04 54.464)"/><g transform="translate(8 75.056)"/><g transform="translate(8 75.056)"/><g transform="translate(8 66.08)"><g transform="matrix(1 0 0 -1 0 8.976)"/></g><g transform="translate(39.68 66.08)"><g transform="matrix(1 0 0 -1 0 8.976)"><use xlink:href="#gD37CA3356587AB4678BD772F473C04E9" x="0" y="0" fill="#ffff00" fill-rule="nonzero"/><use xlink:href="#gE76958D329D85437DFF23F030775ED17" x="15.84" y="0" fill="#ffff00" fill-rule="nonzero"/><use xlink:href="#g9D2891D8A1DDB4C6FB1031ACEA3D5DA3" x="26.4" y="0" fill="#ffff00" fill-rule="nonzero"/></g></g><g transform="translate(103.04 75.056)"/><g transform="translate(103.04 66.08)"/><g transform="translate(8 86.672)"/><g transform="translate(8 86.672)"/><g transform="translate(8 77.696)"><g transform="matrix(1 0 0 -1 0 8.976)"/></g><g transform="translate(44.96 77.696)"><g transform="matrix(1 0 0 -1 0 8.976)"><use xlink:href="#gD37CA3356587AB4678BD772F473C04E9" x="0" y="0" fill="#ffff00" fill-rule="nonzero"/><use xlink:href="#gB0CEAA50A2EBE29340A62EE9B8914EEC" x="10.56" y="0" fill="#ffff00" fill-rule="nonzero"/><use xlink:href="#g9D2891D8A1DDB4C6FB1031ACEA3D5DA3" x="15.84" y="0" fill="#ffff00" fill-rule="nonzero"/></g></g><g transform="translate(103.04 86.672)"/><g transform="translate(103.04 77.696)"/><g transform="translate(8 89.312)"/><g transform="translate(8 100.928)"/></g><defs><symbol id="gDC7654F9A9404D3525A3900DED6B06C6" overflow="visible"><path d="M 0 0m 2.0856 -0.968v 8.272h 1.1088v -8.272h -1.1088Z "/></symbol><symbol id="g3FD66DFBDBEF59351D4AC30A46EBE8A5" overflow="visible"><path d="M 0 0m 2.64 -0.088q -0.3696 0 -0.594 0.2244q -0.2244 0.2244 -0.2244 0.5852q 0 0.3608 0.2244 0.5896q 0.2244 0.2288 0.594 0.2288q 0.3696 0 0.594 -0.2288q 0.2244 -0.2288 0.2244 -0.5896q 0 -0.3608 -0.2244 -0.5852q -0.2244 -0.2244 -0.594 -0.2244Z "/></symbol><symbol id="gB0CEAA50A2EBE29340A62EE9B8914EEC" overflow="visible"><path d="M 0 0m -4.752 -1.2144v 0.9944h 9.504v -0.9944h -9.504Z "/></symbol><symbol id="gD37CA3356587AB4678BD772F473C04E9" overflow="visible"><path d="M 0 0m 3.5992 -0.968l -3.0712 8.272h 1.144l 3.0712 -8.272h -1.144Z "/></symbol><symbol id="g9D2891D8A1DDB4C6FB1031ACEA3D5DA3" overflow="visible"><path d="M 0 0m 0.528 -0.968l 3.08 8.272h 1.144l -3.08 -8.272h -1.144Z "/></symbol><symbol id="gE76958D329D85437DFF23F030775ED17" overflow="visible"><path d="M 0 0m -0.6424 -0.968l -3.0624 8.272h 1.144l 2.3232 -6.3096l 0.2376 -0.7744l 0.2376 0.7744l 2.3056 6.3096h 1.1616l -3.0624 -8.272h -1.2848Z "/></symbol></defs></svg>