<svg viewBox="0 0 192.186456693 148.890456693" width="192.186456693pt" height="148.890456693pt" xmlns="http://www.w3.org/2000/svg" xmlns:xlink="http://www.w3.org/1999/xlink" xmlns:h5="http://www.w3.org/1999/xhtml"><path fill="#ffffff" fill-rule="nonzero" d="M 0 0v 148.890456693h 192.186456693v -148.890456693Z "/><g transform="translate(14.173228346 14.173228346)"><path fill="#000000" fill-rule="nonzero" d="M 0 0m 0 5c 0 -2.761423749 2.238576251 -5 5 -5h 153.84c 2.761423749 0 5 2.238576251 5 5v 110.544c 0 2.761423749 -2.238576251 5 -5 5h -153.84c -2.761423749 0 -5 -2.238576251 -5 -5Z "/><g transform="translate(8 16.976)"/><g transform="translate(8 16.976)"/><g transform="translate(8 8)"><g transform="matrix(1 0 0 -1 0 8.976)"><use xlink:href="#gF5EB9C4AF8F52FC3BE778C06282A1C81" x="5.28" y="0" fill="#ff0000" fill-rule="nonzero"/><use xlink:href="#gF5EB9C4AF8F52FC3BE778C06282A1C81" x="10.56" y="0" fill="#ff0000" fill-rule="nonzero"/><use xlink:href="#gF5EB9C4AF8F52FC3BE778C06282A1C81" x="15.84" y="0" fill="#ff0000" fill-rule="nonzero"/><use xlink:href="#gF5EB9C4AF8F52FC3BE778C06282A1C81" x="21.12" y="0" fill="#ff0000" fill-rule="nonzero"/><use xlink:href="#gF5EB9C4AF8F52FC3BE778C06282A1C81" x="26.4" y="0" fill="#ff0000" fill-rule="nonzero"/><use xlink:href="#gF5EB9C4AF8F52FC3BE778C06282A1C81" x="31.68" y="0" fill="#ff0000" fill-rule="nonzero"/><use xlink:href="#gF5EB9C4AF8F52FC3BE778C06282A1C81" x="36.96" y="0" fill="#ff0000" fill-rule="nonzero"/></g></g><g transform="translate(155.84 16.976)"/><g transform="translate(155.84 8)"/><g transform="translate(8 28.592)"/><g transform="translate(8 28.592)"/><g transform="translate(8 28.592)"/><g transform="translate(8 19.616)"><g transform="matrix(1 0 0 -1 0 8.976)"><use xlink:href="#gDC7654F9A9404D3525A3900DED6B06C6" x="0" y="0" fill="#ff0000" fill-rule="nonzero"/><use xlink:href="#gDC7654F9A9404D3525A3900DED6B06C6" x="42.24" y="0" fill="#ff0000" fill-rule="nonzero"/><use xlink:href="#g3FD66DFBDBEF59351D4AC30A46EBE8A5" x="47.52" y="0" fill="#ff0000" fill-rule="nonzero"/><use xlink:href="#gD7389F20B79CEB219257CFD97F88FFBB" x="52.8" y="0" fill="#ff0000" fill-rule="nonzero"/><use xlink:href="#gD7389F20B79CEB219257CFD97F88FFBB" x="58.08" y="0" fill="#ff0000" fill-rule="nonzero"/><use xlink:href="#gD7389F20B79CEB219257CFD97F88FFBB" x="63.36" y="0" fill="#ff0000" fill-rule="nonzero"/><use xlink:href="#gD7389F20B79CEB219257CFD97F88FFBB" x="68.64" y="0" fill="#ff0000" fill-rule="nonzero"/><use xlink:href="#gD7389F20B79CEB219257CFD97F88FFBB" x="73.92" y="0" fill="#ff0000" fill-rule="nonzero"/><use xlink:href="#g3FD66DFBDBEF59351D4AC30A46EBE8A5" x="79.2" y="0" fill="#ff0000" fill-rule="nonzero"/><use xlink:href="#gD7389F20B79CEB219257CFD97F88FFBB" x="84.48" y="0" fill="#ff0000" fill-rule="nonzero"/><use xlink:href="#gD7389F20B79CEB219257CFD97F88FFBB" x="89.76" y="0" fill="#ff0000" fill-rule="nonzero"/><use xlink:href="#gD7389F20B79CEB219257CFD97F88FFBB" x="95.04" y="0" fill="#ff0000" fill-rule="nonzero"/><use xlink:href="#gD7389F20B79CEB219257CFD97F88FFBB" x="100.32" y="0" fill="#ff0000" fill-rule="nonzero"/><use xlink:href="#gD7389F20B79CEB219257CFD97F88FFBB" x="105.6" y="0" fill="#ff0000" fill-rule="nonzero"/><use xlink:href="#g3FD66DFBDBEF59351D4AC30A46EBE8A5" x="110.88" y="0" fill="#ff0000" fill-rule="nonzero"/><use xlink:href="#gD7389F20B79CEB219257CFD97F88FFBB" x="116.16" y="0" fill="#ff0000" fill-rule="nonzero"/><use xlink:href="#gD7389F20B79CEB219257CFD97F88FFBB" x="121.44" y="0" fill="#ff0000" fill-rule="nonzero"/><use xlink:href="#gD7389F20B79CEB219257CFD97F88FFBB" x="126.72" y="0" fill="#ff0000" fill-rule="nonzero"/><use xlink:href="#gD7389F20B79CEB219257CFD97F88FFBB" x="132" y="0" fill="#ff0000" fill-rule="nonzero"/><use xlink:href="#gD7389F20B79CEB219257CFD97F88FFBB" x="137.28" y="0" fill="#ff0000" fill-rule="nonzero"/><use xlink:href="#g3FD66DFBDBEF59351D4AC30A46EBE8A5" x="142.56" y="0" fill="#ff0000" fill-rule="nonzero"/></g></g><g transform="translate(155.84 28.592)"/><g transform="translate(155.84 19.616)"/><g transform="translate(8 40.208)"/><g transform="translate(8 40.208)"/><g transform="translate(8 40.208)"/><g transform="translate(8 31.232)"><g transform="matrix(1 0 0 -1 0 8.976)"><use xlink:href="#gDC7654F9A9404D3525A3900DED6B06C6" x="0" y="0" fill="#ff0000" fill-rule="nonzero"/><use xlink:href="#gD7389F20B79CEB219257CFD97F88FFBB" x="21.12" y="0" fill="#ff0000" fill-rule="nonzero"/><use xlink:href="#g6A97A5E5BD76B779EC91C1B367D62B55" x="47.52" y="0" fill="#ff0000" fill-rule="nonzero"/><use xlink:href="#gF5EB9C4AF8F52FC3BE778C06282A1C81" x="63.36" y="0" fill="#ff0000" fill-rule="nonzero"/><use xlink:href="#gDC7654F9A9404D3525A3900DED6B06C6" x="79.2" y="0" fill="#ff0000" fill-rule="nonzero"/><use xlink:href="#gD7389F20B79CEB219257CFD97F88FFBB" x="95.04" y="0" fill="#ff0000" fill-rule="nonzero"/><use xlink:href="#gB0CEAA50A2EBE29340A62EE9B8914EEC" x="105.6" y="0" fill="#ff0000" fill-rule="nonzero"/><use xlink:href="#gDC7654F9A9404D3525A3900DED6B06C6" x="110.88" y="0" fill="#ff0000" fill-rule="nonzero"/><use xlink:href="#gDC7654F9A9404D3525A3900DED6B06C6" x="142.56" y="0" fill="#ff0000" fill-rule="nonzero"/></g></g><g transform="translate(155.84 40.208)"/><g transform="translate(155.84 31.232)"/><g transform="translate(8 51.824)"/><g transform="translate(8 51.824)"/><g transform="translate(8 51.824)"/><g transform="translate(8 42.848)"><g transform="matrix(1 0 0 -1 0 8.976)"><use xlink:href="#gDC7654F9A9404D3525A3900DED6B06C6" x="0" y="0" fill="#ff0000" fill-rule="nonzero"/><use xlink:href="#gF5EB9C4AF8F52FC3BE778C06282A1C81" x="5.28" y="0" fill="#ff0000" fill-rule="nonzero"/><use xlink:href="#gF5EB9C4AF8F52FC3BE778C06282A1C81" x="10.56" y="0" fill="#ff0000" fill-rule="nonzero"/><use xlink:href="#gF5EB9C4AF8F52FC3BE778C06282A1C81" x="15.84" y="0" fill="#ff0000" fill-rule="nonzero"/><use xlink:href="#gF5EB9C4AF8F52FC3BE778C06282A1C81" x="21.12" y="0" fill="#ff0000" fill-rule="nonzero"/><use xlink:href="#gF5EB9C4AF8F52FC3BE778C06282A1C81" x="26.4" y="0" fill="#ff0000" fill-rule="nonzero"/><use xlink:href="#gF5EB9C4AF8F52FC3BE778C06282A1C81" x="31.68" y="0" fill="#ff0000" fill-rule="nonzero"/><use xlink:href="#gF5EB9C4AF8F52FC3BE778C06282A1C81" x="36.96" y="0" fill="#ff0000" fill-rule="nonzero"/><use xlink:href="#g6A97A5E5BD76B779EC91C1B367D62B55" x="47.52" y="0" fill="#ff0000" fill-rule="nonzero"/><use xlink:href="#gB0CEAA50A2EBE29340A62EE9B8914EEC" x="73.92" y="0" fill="#ff0000" fill-rule="nonzero"/><use xlink:href="#gDC7654F9A9404D3525A3900DED6B06C6" x="79.2" y="0" fill="#ff0000" fill-rule="nonzero"/><use xlink:href="#gF5EB9C4AF8F52FC3BE778C06282A1C81" x="84.48" y="0" fill="#ff0000" fill-rule="nonzero"/><use xlink:href="#gF5EB9C4AF8F52FC3BE778C06282A1C81" x="89.76" y="0" fill="#ff0000" fill-rule="nonzero"/><use xlink:href="#gF5EB9C4AF8F52FC3BE778C06282A1C81" x="95.04" y="0" fill="#ff0000" fill-rule="nonzero"/><use xlink:href="#gF5EB9C4AF8F52FC3BE778C06282A1C81" x="100.32" y="0" fill="#ff0000" fill-rule="nonzero"/><use xlink:href="#gF5EB9C4AF8F52FC3BE778C06282A1C81" x="105.6" y="0" fill="#ff0000" fill-rule="nonzero"/><use xlink:href="#gDC7654F9A9404D3525A3900DED6B06C6" x="110.88" y="0" fill="#ff0000" fill-rule="nonzero"/><use xlink:href="#gB0CEAA50A2EBE29340A62EE9B8914EEC" x="121.44" y="0" fill="#ff0000" fill-rule="nonzero"/><use xlink:href="#gDC7654F9A9404D3525A3900DED6B06C6" x="126.72" y="0" fill="#ff0000" fill-rule="nonzero"/><use xlink:href="#gB0CEAA50A2EBE29340A62EE9B8914EEC" x="137.28" y="0" fill="#ff0000" fill-rule="nonzero"/><use xlink:href="#gDC7654F9A9404D3525A3900DED6B06C6" x="142.56" y="0" fill="#ff0000" fill-rule="nonzero"/></g></g><g transform="translate(155.84 51.824)"/><g transform="translate(155.84 42.848)"/><g transform="translate(8 63.44)"/><g transform="translate(8 63.44)"/><g transform="translate(8 63.44)"/><g transform="translate(8 54.464)"><g transform="matrix(1 0 0 -1 0 8.976)"><use xlink:href="#gF5EB9C4AF8F52FC3BE778C06282A1C81" x="5.28" y="0" fill="#ff0000" fill-rule="nonzero"/><use xlink:href="#gF5EB9C4AF8F52FC3BE778C06282A1C81" x="10.56" y="0" fill="#ff0000" fill-rule="nonzero"/><use xlink:href="#gF5EB9C4AF8F52FC3BE778C06282A1C81" x="15.84" y="0" fill="#ff0000" fill-rule="nonzero"/><use xlink:href="#gF5EB9C4AF8F52FC3BE778C06282A1C81" x="21.12" y="0" fill="#ff0000" fill-rule="nonzero"/><use xlink:href="#gF5EB9C4AF8F52FC3BE778C06282A1C81" x="26.4" y="0" fill="#ff0000" fill-rule="nonzero"/><use xlink:href="#gF5EB9C4AF8F52FC3BE778C06282A1C81" x="31.68" y="0" fill="#ff0000" fill-rule="nonzero"/><use xlink:href="#gF5EB9C4AF8F52FC3BE778C06282A1C81" x="36.96" y="0" fill="#ff0000" fill-rule="nonzero"/><use xlink:href="#gF5EB9C4AF8F52FC3BE778C06282A1C81" x="42.24" y="0" fill="#ff0000" fill-rule="nonzero"/><use xlink:href="#gDC7654F9A9404D3525A3900DED6B06C6" x="47.52" y="0" fill="#ff0000" fill-rule="nonzero"/><use xlink:href="#gB0CEAA50A2EBE29340A62EE9B8914EEC" x="58.08" y="0" fill="#ff0000" fill-rule="nonzero"/><use xlink:href="#gDC7654F9A9404D3525A3900DED6B06C6" x="63.36" y="0" fill="#ff0000" fill-rule="nonzero"/><use xlink:href="#gB0CEAA50A2EBE29340A62EE9B8914EEC" x="95.04" y="0" fill="#ff0000" fill-rule="nonzero"/></g></g><g transform="translate(155.84 63.44)"/><g transform="translate(155.84 54.464)"/><g transform="translate(8 75.056)"/><g transform="translate(8 75.056)"/><g transform="translate(8 75.056)"/><g transform="translate(8 66.08)"><g transform="matrix(1 0 0 -1 0 8.976)"><use xlink:href="#gDC7654F9A9404D3525A3900DED6B06C6" x="0" y="0" fill="#ff0000" fill-rule="nonzero"/><use xlink:href="#gDC7654F9A9404D3525A3900DED6B06C6" x="15.84" y="0" fill="#ff0000" fill-rule="nonzero"/><use xlink:href="#gDC7654F9A9404D3525A3900DED6B06C6" x="31.68" y="0" fill="#ff0000" fill-rule="nonzero"/><use xlink:href="#gDC7654F9A9404D3525A3900DED6B06C6" x="47.52" y="0" fill="#ff0000" fill-rule="nonzero"/><use xlink:href="#g3FD66DFBDBEF59351D4AC30A46EBE8A5" x="52.8" y="0" fill="#ff0000" fill-rule="nonzero"/><use xlink:href="#gD7389F20B79CEB219257CFD97F88FFBB" x="58.08" y="0" fill="#ff0000" fill-rule="nonzero"/><use xlink:href="#gD7389F20B79CEB219257CFD97F88FFBB" x="63.36" y="0" fill="#ff0000" fill-rule="nonzero"/><use xlink:href="#gD7389F20B79CEB219257CFD97F88FFBB" x="68.64" y="0" fill="#ff0000" fill-rule="nonzero"/><use xlink:href="#gD7389F20B79CEB219257CFD97F88FFBB" x="73.92" y="0" fill="#ff0000" fill-rule="nonzero"/><use xlink:href="#g3FD66DFBDBEF59351D4AC30A46EBE8A5" x="79.2" y="0" fill="#ff0000" fill-rule="nonzero"/><use xlink:href="#gDC7654F9A9404D3525A3900DED6B06C6" x="84.48" y="0" fill="#ff0000" fill-rule="nonzero"/><use xlink:href="#gDC7654F9A9404D3525A3900DED6B06C6" x="100.32" y="0" fill="#ff0000" fill-rule="nonzero"/><use xlink:href="#gF5EB9C4AF8F52FC3BE778C06282A1C81" x="105.6" y="0" fill="#ff0000" fill-rule="nonzero"/></g></g><g transform="translate(155.84 75.056)"/><g transform="translate(155.84 66.08)"/><g transform="translate(8 86.672)"/><g transform="translate(8 86.672)"/><g transform="translate(8 86.672)"/><g transform="translate(8 77.696)"><g transform="matrix(1 0 0 -1 0 8.976)"><use xlink:href="#gDC7654F9A9404D3525A3900DED6B06C6" x="0" y="0" fill="#ff0000" fill-rule="nonzero"/><use xlink:href="#gDC7654F9A9404D3525A3900DED6B06C6" x="15.84" y="0" fill="#ff0000" fill-rule="nonzero"/><use xlink:href="#gDC7654F9A9404D3525A3900DED6B06C6" x="31.68" y="0" fill="#ff0000" fill-rule="nonzero"/><use xlink:href="#g6A97A5E5BD76B779EC91C1B367D62B55" x="52.8" y="0" fill="#ff0000" fill-rule="nonzero"/><use xlink:href="#gF5EB9C4AF8F52FC3BE778C06282A1C81" x="73.92" y="0" fill="#ff0000" fill-rule="nonzero"/><use xlink:href="#g6A97A5E5BD76B779EC91C1B367D62B55" x="84.48" y="0" fill="#ff0000" fill-rule="nonzero"/><use xlink:href="#gF5EB9C4AF8F52FC3BE778C06282A1C81" x="105.6" y="0" fill="#ff0000" fill-rule="nonzero"/><use xlink:href="#gDC7654F9A9404D3525A3900DED6B06C6" x="110.88" y="0" fill="#ff0000" fill-rule="nonzero"/></g></g><g transform="translate(155.84 86.672)"/><g transform="translate(155.84 77.696)"/><g transform="translate(8 98.288)"/><g transform="translate(8 98.288)"/><g transform="translate(8 98.288)"/><g transform="translate(8 89.312)"><g transform="matrix(1 0 0 -1 0 8.976)"><use xlink:href="#gDC7654F9A9404D3525A3900DED6B06C6" x="0" y="0" fill="#ff0000" fill-rule="nonzero"/><use xlink:href="#gF5EB9C4AF8F52FC3BE778C06282A1C81" x="5.28" y="0" fill="#ff0000" fill-rule="nonzero"/><use xlink:href="#gF5EB9C4AF8F52FC3BE778C06282A1C81" x="10.56" y="0" fill="#ff0000" fill-rule="nonzero"/><use xlink:href="#gF5EB9C4AF8F52FC3BE778C06282A1C81" x="15.84" y="0" fill="#ff0000" fill-rule="nonzero"/><use xlink:href="#gF5EB9C4AF8F52FC3BE778C06282A1C81" x="21.12" y="0" fill="#ff0000" fill-rule="nonzero"/><use xlink:href="#gF5EB9C4AF8F52FC3BE778C06282A1C81" x="26.4" y="0" fill="#ff0000" fill-rule="nonzero"/><use xlink:href="#gF5EB9C4AF8F52FC3BE778C06282A1C81" x="31.68" y="0" fill="#ff0000" fill-rule="nonzero"/><use xlink:href="#gF5EB9C4AF8F52FC3BE778C06282A1C81" x="36.96" y="0" fill="#ff0000" fill-rule="nonzero"/><use xlink:href="#gF5EB9C4AF8F52FC3BE778C06282A1C81" x="42.24" y="0" fill="#ff0000" fill-rule="nonzero"/><use xlink:href="#g6A97A5E5BD76B779EC91C1B367D62B55" x="52.8" y="0" fill="#ff0000" fill-rule="nonzero"/><use xlink:href="#gB0CEAA50A2EBE29340A62EE9B8914EEC" x="63.36" y="0" fill="#ff0000" fill-rule="nonzero"/><use xlink:href="#gDC7654F9A9404D3525A3900DED6B06C6" x="68.64" y="0" fill="#ff0000" fill-rule="nonzero"/><use xlink:href="#gDC7654F9A9404D3525A3900DED6B06C6" x="84.48" y="0" fill="#ff0000" fill-rule="nonzero"/><use xlink:href="#gF5EB9C4AF8F52FC3BE778C06282A1C81" x="89.76" y="0" fill="#ff0000" fill-rule="nonzero"/><use xlink:href="#gF5EB9C4AF8F52FC3BE778C06282A1C81" x="95.04" y="0" fill="#ff0000" fill-rule="nonzero"/><use xlink:href="#gF5EB9C4AF8F52FC3BE778C06282A1C81" x="100.32" y="0" fill="#ff0000" fill-rule="nonzero"/><use xlink:href="#gF5EB9C4AF8F52FC3BE778C06282A1C81" x="105.6" y="0" fill="#ff0000" fill-rule="nonzero"/><use xlink:href="#gDC7654F9A9404D3525A3900DED6B06C6" x="110.88" y="0" fill="#ff0000" fill-rule="nonzero"/></g></g><g transform="translate(155.84 98.288)"/><g transform="translate(155.84 89.312)"/><g transform="translate(8 100.928)"/><g transform="translate(8 112.544)"/></g><defs><symbol id="gF5EB9C4AF8F52FC3BE778C06282A1C81" overflow="visible"><path d="M 0 0m 0.528 -1.2144v 0.9944h 4.224v -0.9944h -4.224Z "/></symbol><symbol id="gDC7654F9A9404D3525A3900DED6B06C6" overflow="visible"><path d="M 0 0m 2.0856 -0.968v 8.272h 1.1088v -8.272h -1.1088Z "/></symbol><symbol id="g3FD66DFBDBEF59351D4AC30A46EBE8A5" overflow="visible"><path d="M 0 0m 2.64 -0.088q -0.3696 0 -0.594 0.2244q -0.2244 0.2244 -0.2244 0.5852q 0 0.3608 0.2244 0.5896q 0.2244 0.2288 0.594 0.2288q 0.3696 0 0.594 -0.2288q 0.2244 -0.2288 0.2244 -0.5896q 0 -0.3608 -0.2244 -0.5852q -0.2244 -0.2244 -0.594 -0.2244Z "/></symbol><symbol id="gD7389F20B79CEB219257CFD97F88FFBB" overflow="visible"><path d="M 0 0m 1.232 2.3936v 1.0208h 2.816v -1.0208h -2.816Z "/></symbol><symbol id="g6A97A5E5BD76B779EC91C1B367D62B55" overflow="visible"><path d="M 0 0m 1.5576 -0.968v 8.272h 1.1088v -8.272h -1.1088Z m -4.224 0v 8.272h 1.1088v -8.272h -1.1088Z "/></symbol><symbol id="gB0CEAA50A2EBE29340A62EE9B8914EEC" overflow="visible"><path d="M 0 0m -4.752 -1.2144v 0.9944h 9.504v -0.9944h -9.504Z "/></symbol></defs></svg>